<mxfile host="app.diagrams.net" modified="2021-07-22T06:20:55.211Z" agent="5.0 (Windows NT 10.0; Win64; x64) AppleWebKit/537.36 (KHTML, like Gecko) Chrome/91.0.4472.77 Safari/537.36" etag="rTh6WUYpVUW-OoC3jjFB" version="14.9.0" type="github">
  <diagram id="8aEfdYykiK1KhQMiA646" name="Page-1">
    <mxGraphModel dx="1038" dy="636" grid="1" gridSize="10" guides="1" tooltips="1" connect="1" arrows="1" fold="1" page="1" pageScale="1" pageWidth="827" pageHeight="1169" math="0" shadow="0">
      <root>
        <mxCell id="0" />
        <mxCell id="1" parent="0" />
        <mxCell id="3irocwIOyP-Q4dtQezHs-3" value="" style="edgeStyle=orthogonalEdgeStyle;rounded=0;orthogonalLoop=1;jettySize=auto;html=1;" edge="1" parent="1" source="3irocwIOyP-Q4dtQezHs-1" target="3irocwIOyP-Q4dtQezHs-2">
          <mxGeometry relative="1" as="geometry" />
        </mxCell>
        <mxCell id="3irocwIOyP-Q4dtQezHs-1" value="信用采集" style="rounded=0;whiteSpace=wrap;html=1;" vertex="1" parent="1">
          <mxGeometry x="160" y="210" width="120" height="60" as="geometry" />
        </mxCell>
        <mxCell id="3irocwIOyP-Q4dtQezHs-5" value="" style="edgeStyle=orthogonalEdgeStyle;rounded=0;orthogonalLoop=1;jettySize=auto;html=1;" edge="1" parent="1" source="3irocwIOyP-Q4dtQezHs-2" target="3irocwIOyP-Q4dtQezHs-4">
          <mxGeometry relative="1" as="geometry" />
        </mxCell>
        <mxCell id="3irocwIOyP-Q4dtQezHs-2" value="采集人员数据" style="rounded=0;whiteSpace=wrap;html=1;" vertex="1" parent="1">
          <mxGeometry x="360" y="210" width="120" height="60" as="geometry" />
        </mxCell>
        <mxCell id="3irocwIOyP-Q4dtQezHs-7" value="" style="edgeStyle=orthogonalEdgeStyle;rounded=0;orthogonalLoop=1;jettySize=auto;html=1;" edge="1" parent="1" source="3irocwIOyP-Q4dtQezHs-4" target="3irocwIOyP-Q4dtQezHs-6">
          <mxGeometry relative="1" as="geometry" />
        </mxCell>
        <mxCell id="3irocwIOyP-Q4dtQezHs-4" value="信用评级" style="rounded=0;whiteSpace=wrap;html=1;" vertex="1" parent="1">
          <mxGeometry x="360" y="350" width="120" height="60" as="geometry" />
        </mxCell>
        <mxCell id="3irocwIOyP-Q4dtQezHs-6" value="对机构和人员进行信用评价" style="rounded=0;whiteSpace=wrap;html=1;" vertex="1" parent="1">
          <mxGeometry x="360" y="490" width="120" height="60" as="geometry" />
        </mxCell>
      </root>
    </mxGraphModel>
  </diagram>
</mxfile>
